# xmcd
#
# Track frame offsets:
#	150
#	17222
#	34900
#	55145
#
# Disc length: 1057 seconds
#
# Revision: 2
# Processed by: cddbd v1.5.2PL0 Copyright (c) Steve Scherf et al.
# Submitted via: EasyCDDAExtractor 2011.0.0.0
#
DISCID=2d041f04
DTITLE=Next - Beauty Queen 
DYEAR=2000
DGENRE=R&B
TTITLE0=Beauty Queen (Radio Mix)
TTITLE1=Beauty Queen (Album Version)
TTITLE2=Beauty Queen (Instrumental)
TTITLE3=Wifey (DYNK Vocal Mix - Featuring Easy Rider)
EXTD=Real World, distr Virgin 1991
EXTT0=
EXTT1=
EXTT2=
EXTT3=
PLAYORDER=
